<?xml version="1.0" encoding="UTF-8" standalone="no"?>
<!-- Created with Inkscape (http://www.inkscape.org/) -->

<svg
   xmlns:dc="http://purl.org/dc/elements/1.1/"
   xmlns:cc="http://creativecommons.org/ns#"
   xmlns:rdf="http://www.w3.org/1999/02/22-rdf-syntax-ns#"
   xmlns:svg="http://www.w3.org/2000/svg"
   xmlns="http://www.w3.org/2000/svg"
   xmlns:sodipodi="http://sodipodi.sourceforge.net/DTD/sodipodi-0.dtd"
   xmlns:inkscape="http://www.inkscape.org/namespaces/inkscape"
   id="svg2"
   version="1.1"
   inkscape:version="0.91 r13725"
   xml:space="preserve"
   width="274.3125"
   height="18.15"
   viewBox="0 0 274.3125 18.15"
   sodipodi:docname="logo_smart_costa_del_sol.svg"><metadata
     id="metadata8"><rdf:RDF><cc:Work
         rdf:about=""><dc:format>image/svg+xml</dc:format><dc:type
           rdf:resource="http://purl.org/dc/dcmitype/StillImage" /><dc:title></dc:title></cc:Work></rdf:RDF></metadata><defs
     id="defs6"><clipPath
       clipPathUnits="userSpaceOnUse"
       id="clipPath18"><path
         d="m 574.617,119.199 0,13.871 86.047,0 0,-13.871 -34.461,0 0,-117.79666 -17.133,0 0,117.79666 -34.453,0 0,0 z m -108.07,0 0,-49.781 25.234,0 c 9.414,0 16.41,2.1875 20.992,6.5586 4.579,4.3711 6.875,10.4765 6.875,18.3359 0,16.5895 -9.293,24.8865 -27.867,24.8865 l -25.234,0 0,0 z m 0,-63.4607 0,-54.33596 -17.133,0 0,131.66766 42.367,0 c 14.684,0 25.891,-3.613 33.61,-10.828 7.718,-7.222 11.578,-16.054 11.578,-26.5037 0,-10.457 -2.824,-19.1602 -8.473,-26.1289 C 522.848,62.6406 514.375,58.2773 503.074,56.5 l 35.961,-55.09766 -21.461,0 -34.269,54.33596 -16.758,0 0,0 z M 331.18,43.9609 l 48.199,0 -24.098,68.0161 -24.101,-68.0161 0,0 z m 63.261,-42.55856 -10.164,28.87496 -57.996,0 -10.164,-28.87496 -17.508,0 47.446,131.66766 18.828,0 47.262,-131.66766 -17.704,0 0,0 z M 261.332,133.07 l 0,-131.66766 -17.32,0 0,95.94536 -43.68,-95.94536 -11.113,0 -43.867,95.94536 0,-95.94536 -17.141,0 0,131.66766 17.516,0 49.14,-107.9177 48.957,107.9177 17.508,0 0,0 z M 16.7578,97.918 c 0,-4.8125 1.3164,-8.8008 3.9531,-11.9649 2.6368,-3.1718 6.0274,-5.5156 10.168,-7.0312 4.1445,-1.5196 8.7539,-2.8516 13.8438,-3.9922 5.082,-1.1406 10.164,-2.4414 15.2461,-3.8945 5.0859,-1.4571 9.6992,-3.3243 13.8398,-5.6055 4.1445,-2.2813 7.5352,-5.6992 10.1719,-10.2578 2.6289,-4.5625 3.9492,-10.1953 3.9492,-16.9141 0,-10.2539 -3.8906,-19.1914 -11.6719,-26.789 C 68.4766,3.87109 57.9648,0.0742188 44.7227,0.0742188 31.4727,0.0742188 20.7109,3.14063 12.4258,9.28125 4.14453,15.4258 0,23.7539 0,34.2734 l 18.2656,0 c 0.5,-5.957 2.8516,-10.7734 7.0625,-14.4453 4.2032,-3.6718 10.4492,-5.5078 18.7344,-5.5078 8.2813,0 14.8711,2.1485 19.7656,6.457 4.8985,4.3047 7.3438,9.3438 7.3438,15.1055 0,5.7617 -1.3203,10.1953 -3.9492,13.3008 -2.6368,3.1055 -6.0274,5.4219 -10.1719,6.9336 -4.1406,1.5234 -8.7539,2.8242 -13.8399,3.8984 -5.082,1.0742 -10.164,2.3711 -15.2461,3.8946 C 22.875,65.4297 18.2656,67.3633 14.1211,69.707 9.98047,72.0469 6.58984,75.5313 3.95313,80.1563 1.31641,84.7813 0,90.5078 0,97.3477 c 0,11.1483 3.92578,20.1093 11.7656,26.8863 7.8477,6.778 18.0782,10.164 30.6953,10.164 12.6133,0 22.6563,-2.945 30.125,-8.832 7.4688,-5.894 11.7696,-14.027 12.8985,-24.418 l -19.0196,0 c -0.5,5.196 -2.914,9.629 -7.246,13.301 -4.3321,3.676 -10.1719,5.512 -17.5118,5.512 -7.3437,0 -13.3398,-1.871 -17.9804,-5.606 -4.6446,-3.734 -6.9688,-9.214 -6.9688,-16.437 l 0,0 z"
         id="path20"
         inkscape:connector-curvature="0"
         style="clip-rule:evenodd" /></clipPath><clipPath
       clipPathUnits="userSpaceOnUse"
       id="clipPath24"><path
         d="m -1.38672,-8.59766 2199.99672,0 0,159.99966 -2199.99672,0 0,-159.99966 z"
         id="path26"
         inkscape:connector-curvature="0" /></clipPath><clipPath
       clipPathUnits="userSpaceOnUse"
       id="clipPath34"><path
         d="m 0,0 2194,0 0,145 L 0,145 0,0 Z"
         id="path36"
         inkscape:connector-curvature="0" /></clipPath><clipPath
       clipPathUnits="userSpaceOnUse"
       id="clipPath40"><path
         d="m 2150.64,31.1953 43.81,0 0,-29.79296 -82.85,0 0,141.59366 39.04,0 0,-111.8007 0,0 z m -127.83,77.6017 c -9.91,0 -17.7,-3.231 -23.39,-9.6954 -5.68,-6.4688 -8.52,-15.3047 -8.52,-26.5 0,-10.9375 2.84,-19.668 8.52,-26.1993 5.69,-6.5351 13.48,-9.8046 23.39,-9.8046 9.78,0 17.51,3.2695 23.19,9.8046 5.68,6.5313 8.52,15.2618 8.52,26.1993 0,11.1953 -2.8,20.0312 -8.42,26.5 -5.61,6.4644 -13.38,9.6954 -23.29,9.6954 l 0,0 z m 0,36.402 c 13.21,0 25.28,-3.101 36.17,-9.301 10.9,-6.195 19.5,-14.828 25.77,-25.898 6.27,-11.0664 9.41,-23.5352 9.41,-37.3984 0,-13.8672 -3.16,-26.336 -9.51,-37.4024 -6.34,-11.0625 -14.96,-19.6953 -25.86,-25.89842 -10.91,-6.19922 -22.9,-9.29687375 -35.98,-9.29687375 -13.08,0 -25.11,3.09765375 -36.07,9.29687375 -10.97,6.20312 -19.62,14.83592 -25.97,25.89842 -6.34,11.0664 -9.51,23.5352 -9.51,37.4024 0,13.8632 3.17,26.332 9.51,37.3984 6.35,11.07 15,19.703 25.97,25.898 10.96,6.2 22.99,9.301 36.07,9.301 l 0,0 z M 1938.18,42.2031 c 0,-7.8711 -1.98,-15 -5.94,-21.4062 -3.97,-6.3985 -9.78,-11.46487 -17.45,-15.19534 -7.66,-3.73047 -16.84,-5.59765375 -27.54,-5.59765375 -16.25,0 -29.63,3.92578375 -40.14,11.79689375 -10.51,7.8633 -16.22,19.0625 -17.15,33.5937 l 41.43,0 c 0.4,-4.9297 1.91,-8.5937 4.56,-10.9961 2.64,-2.4023 5.88,-3.6015 9.7,-3.6015 3.44,0 6.12,0.8672 8.03,2.6054 1.92,1.7305 2.88,4.1993 2.88,7.3946 0,4.2656 -1.92,7.5664 -5.75,9.9023 -3.83,2.3321 -9.91,4.9024 -18.23,7.7031 -8.86,3.0665 -16.15,6.0665 -21.91,8.9961 -5.74,2.9336 -10.7,7.3321 -14.86,13.2032 -4.16,5.8632 -6.24,13.3984 -6.24,22.5974 0,8.801 2.25,16.367 6.74,22.699 4.49,6.332 10.63,11.133 18.43,14.399 7.8,3.273 16.65,4.902 26.56,4.902 16.12,0 28.96,-3.832 38.54,-11.5 9.58,-7.664 14.84,-18.429 15.76,-32.297 l -41.81,0 c -0.54,4.399 -1.89,7.664 -4.07,9.797 -2.18,2.137 -5.05,3.199 -8.62,3.199 -3.04,0 -5.42,-0.8 -7.14,-2.398 -1.71,-1.602 -2.57,-4.004 -2.57,-7.199 0,-4 1.88,-7.1369 5.65,-9.4026 3.76,-2.2656 9.68,-4.7968 17.73,-7.6015 8.86,-3.1992 16.19,-6.3321 22.01,-9.3985 5.81,-3.0664 10.83,-7.5351 15.06,-13.3945 4.22,-5.8672 6.34,-13.4766 6.34,-22.8008 l 0,0 z m -199.78,-11.0078 43.8,0 0,-29.79296 -82.85,0 0,141.59366 39.05,0 0,-111.8007 0,0 z m -108.22,80.4067 0,-23.4028 45.39,0 0,-29.7969 -45.39,0 0,-25.6054 51.33,0 0,-31.39456 -90.38,0 0,141.59366 90.38,0 0,-31.394 -51.33,0 0,0 z M 1497.19,36.5977 c 11.49,0 20.54,3.1328 27.16,9.4023 6.6,6.2695 9.91,15.1367 9.91,26.6016 0,11.332 -3.31,20.1679 -9.91,26.5 -6.62,6.3324 -15.67,9.4964 -27.16,9.4964 l -13.28,0 0,-72.0003 13.28,0 0,0 z m 76.5,36.0039 c 0,-13.7383 -2.97,-25.9649 -8.92,-36.6993 -5.94,-10.7304 -14.4,-19.1679 -25.37,-25.3007 -10.96,-6.13285 -23.84,-9.19926 -38.64,-9.19926 l -55.9,0 0,141.59366 55.9,0 c 14.8,0 27.72,-2.961 38.74,-8.894 11.04,-5.934 19.49,-14.235 25.37,-24.903 5.88,-10.6638 8.82,-22.867 8.82,-36.5974 l 0,0 z m -235.65,-17.9961 -15.07,45.9965 -15.26,-45.9965 30.33,0 0,0 z m 9.7,-29.6016 -49.74,0 -7.73,-23.60156 -41.02,0 51.33,140.99566 44.99,0 51.13,-140.99566 -41.22,0 -7.74,23.60156 0,0 z m -101.47,117.9921 0,-31.394 -37.85,0 0,-110.19966 -38.85,0 0,110.19966 -37.46,0 0,31.394 114.16,0 0,0 z M 1123.58,42.2031 c 0,-7.8711 -1.98,-15 -5.94,-21.4062 -3.97,-6.3985 -9.78,-11.46487 -17.45,-15.19534 -7.65,-3.73047 -16.84,-5.59765375 -27.54,-5.59765375 -16.25,0 -29.63,3.92578375 -40.14,11.79689375 -10.5,7.8633 -16.22,19.0625 -17.14,33.5937 l 41.42,0 c 0.4,-4.9297 1.92,-8.5937 4.56,-10.9961 2.64,-2.4023 5.88,-3.6015 9.71,-3.6015 3.44,0 6.11,0.8672 8.03,2.6054 1.92,1.7305 2.87,4.1993 2.87,7.3946 0,4.2656 -1.91,7.5664 -5.74,9.9023 -3.84,2.3321 -9.91,4.9024 -18.24,7.7031 -8.85,3.0665 -16.15,6.0665 -21.9,8.9961 -5.75,2.9336 -10.7,7.3321 -14.86,13.2032 -4.17,5.8632 -6.25,13.3984 -6.25,22.5974 0,8.801 2.25,16.367 6.74,22.699 4.5,6.332 10.64,11.133 18.44,14.399 7.79,3.273 16.64,4.902 26.55,4.902 16.12,0 28.97,-3.832 38.55,-11.5 9.58,-7.664 14.84,-18.429 15.76,-32.297 l -41.82,0 c -0.53,4.399 -1.89,7.664 -4.06,9.797 -2.19,2.137 -5.06,3.199 -8.63,3.199 -3.03,0 -5.41,-0.8 -7.13,-2.398 -1.72,-1.602 -2.58,-4.004 -2.58,-7.199 0,-4 1.89,-7.1369 5.65,-9.4026 3.77,-2.2656 9.68,-4.7968 17.74,-7.6015 8.85,-3.1992 16.19,-6.3321 22,-9.3985 5.82,-3.0664 10.84,-7.5351 15.07,-13.3945 4.22,-5.8672 6.33,-13.4766 6.33,-22.8008 l 0,0 z M 930.145,108.797 c -9.911,0 -17.704,-3.231 -23.387,-9.6954 -5.684,-6.4688 -8.52,-15.3047 -8.52,-26.5 0,-10.9375 2.836,-19.668 8.52,-26.1993 5.683,-6.5351 13.476,-9.8046 23.387,-9.8046 9.777,0 17.507,3.2695 23.191,9.8046 5.676,6.5313 8.519,15.2618 8.519,26.1993 0,11.1953 -2.808,20.0312 -8.421,26.5 -5.618,6.4644 -13.379,9.6954 -23.289,9.6954 l 0,0 z m 0,36.402 c 13.214,0 25.269,-3.101 36.171,-9.301 10.899,-6.195 19.489,-14.828 25.762,-25.898 6.281,-11.0664 9.412,-23.5352 9.412,-37.3984 0,-13.8672 -3.166,-26.336 -9.51,-37.4024 C 985.641,24.1367 977.016,15.5039 966.117,9.30078 955.215,3.10156 943.227,0.00390625 930.145,0.00390625 c -13.079,0 -25.106,3.09765375 -36.075,9.29687375 -10.965,6.20312 -19.617,14.83592 -25.961,25.89842 -6.343,11.0664 -9.515,23.5352 -9.515,37.4024 0,13.8632 3.172,26.332 9.515,37.3984 6.344,11.07 14.996,19.703 25.961,25.898 10.969,6.2 22.996,9.301 36.075,9.301 l 0,0 z M 777.73,144.398 c 12.024,0 22.758,-2.23 32.208,-6.699 9.445,-4.469 17.14,-10.801 23.089,-19 5.946,-8.203 9.977,-17.699 12.09,-28.4998 l -41.027,0 c -2.246,5.6016 -5.746,9.9648 -10.508,13.1018 -4.754,3.133 -10.238,4.695 -16.449,4.695 -8.59,0 -15.524,-3.23 -20.809,-9.6952 -5.285,-6.4688 -7.926,-15.1016 -7.926,-25.9024 0,-10.8007 2.641,-19.4648 7.926,-25.9961 5.285,-6.5351 12.219,-9.8046 20.809,-9.8046 6.211,0 11.695,1.6015 16.449,4.8046 4.762,3.2032 8.262,7.5977 10.508,13.2032 l 41.027,0 C 841.949,38.0703 834.449,24.8984 822.621,15.1016 810.797,5.29688 795.828,0.394531 777.73,0.394531 c -13.875,0 -25.996,3.039059 -36.367,9.101559 -10.379,6.07421 -18.371,14.57031 -23.984,25.50781 -5.617,10.9297 -8.426,23.3984 -8.426,37.3945 0,14.0039 2.809,26.4688 8.426,37.4026 5.613,10.929 13.605,19.433 23.984,25.496 10.371,6.07 22.492,9.101 36.367,9.101 l 0,0 z"
         id="path42"
         inkscape:connector-curvature="0"
         style="clip-rule:evenodd" /></clipPath><clipPath
       clipPathUnits="userSpaceOnUse"
       id="clipPath46"><path
         d="m -1.38672,-8.59766 2199.99672,0 0,159.99966 -2199.99672,0 0,-159.99966 z"
         id="path48"
         inkscape:connector-curvature="0" /></clipPath></defs><sodipodi:namedview
     pagecolor="#ffffff"
     bordercolor="#666666"
     borderopacity="1"
     objecttolerance="10"
     gridtolerance="10"
     guidetolerance="10"
     inkscape:pageopacity="0"
     inkscape:pageshadow="2"
     inkscape:window-width="1303"
     inkscape:window-height="744"
     id="namedview4"
     showgrid="false"
     inkscape:zoom="1.3378902"
     inkscape:cx="137.15625"
     inkscape:cy="9.0749998"
     inkscape:window-x="65"
     inkscape:window-y="24"
     inkscape:window-maximized="1"
     inkscape:current-layer="g10" /><g
     id="g10"
     inkscape:groupmode="layer"
     inkscape:label="ink_ext_XXXXXX"
     transform="matrix(1.25,0,0,-1.25,0,18.15)"><g
       id="g12"
       transform="scale(0.1,0.1)"><g
         id="g14"><g
           id="g16"
           clip-path="url(#clipPath18)"><g
             id="g22"
             clip-path="url(#clipPath24)"><path
               d="m -50,184.398 760.664,0 0,-234.3238 -760.664,0 0,234.3238"
               style="fill:#2752ab;fill-opacity:1;fill-rule:nonzero;stroke:none"
               id="path28"
               inkscape:connector-curvature="0" /></g></g></g><g
         id="g30"><g
           id="g32"
           clip-path="url(#clipPath34)"><g
             id="g38"
             clip-path="url(#clipPath40)"><g
               id="g44"
               clip-path="url(#clipPath46)"><path
                 d="m 658.953,195.199 1585.497,0 0,-245.1951 -1585.497,0 0,245.1951"
                 style="fill:#2752ab;fill-opacity:1;fill-rule:nonzero;stroke:none"
                 id="path50"
                 inkscape:connector-curvature="0" /></g></g></g></g></g></g></svg>